<?xml version="1.0" encoding="UTF-8" standalone="no"?>
<!-- Created with Inkscape (http://www.inkscape.org/) -->

<svg
   xmlns:dc="http://purl.org/dc/elements/1.1/"
   xmlns:cc="http://creativecommons.org/ns#"
   xmlns:rdf="http://www.w3.org/1999/02/22-rdf-syntax-ns#"
   xmlns:svg="http://www.w3.org/2000/svg"
   xmlns="http://www.w3.org/2000/svg"
   xmlns:xlink="http://www.w3.org/1999/xlink"
   xmlns:sodipodi="http://sodipodi.sourceforge.net/DTD/sodipodi-0.dtd"
   xmlns:inkscape="http://www.inkscape.org/namespaces/inkscape"
   width="400"
   height="130"
   id="svg4012"
   version="1.1"
   inkscape:version="0.48.2 r9819"
   sodipodi:docname="logo.svg"
   inkscape:export-filename="/home/mike/Projects/DMagick/docs/logo.png"
   inkscape:export-xdpi="62.307693"
   inkscape:export-ydpi="62.307693">
  <defs
     id="defs4014">
    <linearGradient
       inkscape:collect="always"
       id="linearGradient4085">
      <stop
         style="stop-color:#ffffff;stop-opacity:1;"
         offset="0"
         id="stop4087" />
      <stop
         style="stop-color:#ffffff;stop-opacity:0;"
         offset="1"
         id="stop4089" />
    </linearGradient>
    <clipPath
       clipPathUnits="userSpaceOnUse"
       id="clipPath4744">
      <text
         xml:space="preserve"
         style="font-size:120px;font-style:normal;font-variant:normal;font-weight:bold;font-stretch:normal;line-height:125%;letter-spacing:0px;word-spacing:0px;fill:#000000;fill-opacity:1;stroke:none;font-family:Neuton;-inkscape-font-specification:Neuton Bold"
         x="27.323027"
         y="141.93573"
         id="text4746"
         sodipodi:linespacing="125%"><tspan
           sodipodi:role="line"
           x="27.323027"
           y="141.93573"
           id="tspan4748">D</tspan></text>
    </clipPath>
    <clipPath
       clipPathUnits="userSpaceOnUse"
       id="clipPath4750">
      <text
         xml:space="preserve"
         style="font-size:120px;font-style:normal;font-variant:normal;font-weight:bold;font-stretch:normal;line-height:125%;letter-spacing:0px;word-spacing:0px;fill:#000000;fill-opacity:1;stroke:none;font-family:Neuton;-inkscape-font-specification:Neuton Bold"
         x="7.3230271"
         y="100.93573"
         id="text4752"
         sodipodi:linespacing="125%"><tspan
           sodipodi:role="line"
           x="7.3230271"
           y="100.93573"
           id="tspan4754">D</tspan></text>
    </clipPath>
    <linearGradient
       inkscape:collect="always"
       xlink:href="#linearGradient4085"
       id="linearGradient4760"
       gradientUnits="userSpaceOnUse"
       x1="91"
       y1="264"
       x2="36"
       y2="62" />
    <filter
       inkscape:collect="always"
       id="filter4930">
      <feGaussianBlur
         inkscape:collect="always"
         stdDeviation="0.20189945"
         id="feGaussianBlur4932" />
    </filter>
    <filter
       inkscape:collect="always"
       id="filter4934">
      <feGaussianBlur
         inkscape:collect="always"
         stdDeviation="0.20189945"
         id="feGaussianBlur4936" />
    </filter>
    <filter
       inkscape:collect="always"
       id="filter4938">
      <feGaussianBlur
         inkscape:collect="always"
         stdDeviation="0.20189945"
         id="feGaussianBlur4940" />
    </filter>
    <filter
       inkscape:collect="always"
       id="filter4942">
      <feGaussianBlur
         inkscape:collect="always"
         stdDeviation="0.20189945"
         id="feGaussianBlur4944" />
    </filter>
    <filter
       inkscape:collect="always"
       id="filter4946">
      <feGaussianBlur
         inkscape:collect="always"
         stdDeviation="0.20189945"
         id="feGaussianBlur4948" />
    </filter>
    <filter
       inkscape:collect="always"
       id="filter4950">
      <feGaussianBlur
         inkscape:collect="always"
         stdDeviation="0.20189945"
         id="feGaussianBlur4952" />
    </filter>
  </defs>
  <sodipodi:namedview
     id="base"
     pagecolor="#ffffff"
     bordercolor="#666666"
     borderopacity="1.0"
     inkscape:pageopacity="0.0"
     inkscape:pageshadow="2"
     inkscape:zoom="2.3058161"
     inkscape:cx="209.80944"
     inkscape:cy="63.152563"
     inkscape:document-units="px"
     inkscape:current-layer="text4020"
     showgrid="false"
     inkscape:window-width="1366"
     inkscape:window-height="716"
     inkscape:window-x="0"
     inkscape:window-y="26"
     inkscape:window-maximized="1" />
  <metadata
     id="metadata4017">
    <rdf:RDF>
      <cc:Work
         rdf:about="">
        <dc:format>image/svg+xml</dc:format>
        <dc:type
           rdf:resource="http://purl.org/dc/dcmitype/StillImage" />
        <dc:title />
      </cc:Work>
    </rdf:RDF>
  </metadata>
  <g
     inkscape:label="Layer 1"
     inkscape:groupmode="layer"
     id="layer1"
     transform="translate(0,-922.36218)">
    <g
       style="font-size:120px;font-style:normal;font-variant:normal;font-weight:bold;font-stretch:normal;line-height:125%;letter-spacing:-5.5px;word-spacing:0px;fill:#000000;fill-opacity:1;stroke:none;font-family:Andika;-inkscape-font-specification:Andika Bold"
       id="text4020">
      <g
         id="g4756"
         transform="translate(-3.9031733,17.347437)">
        <rect
           transform="translate(0,902.36218)"
           style="font-size:120px;font-style:normal;font-variant:normal;font-weight:bold;font-stretch:normal;line-height:125%;letter-spacing:-5.5px;word-spacing:0px;fill:#a40d00;fill-opacity:1;stroke:none;font-family:Andika;-inkscape-font-specification:Andika Bold"
           id="rect4081"
           width="87"
           height="104"
           x="3"
           y="16"
           clip-path="url(#clipPath4750)" />
        <path
           clip-path="url(#clipPath4744)"
           transform="translate(-20,861.36218)"
           d="M 141,145.5 C 141,170.62896 103.61578,191 57.5,191 11.384223,191 -26,170.62896 -26,145.5 -26,120.37104 11.384223,100 57.5,100 c 46.11578,0 83.5,20.37104 83.5,45.5 z"
           sodipodi:ry="45.5"
           sodipodi:rx="83.5"
           sodipodi:cy="145.5"
           sodipodi:cx="57.5"
           id="path4083"
           style="fill:url(#linearGradient4760);fill-opacity:1;stroke:none"
           sodipodi:type="arc" />
      </g>
      <text
         sodipodi:linespacing="125%"
         id="text4728"
         y="1022.3622"
         x="28"
         style="font-size:56px;font-style:normal;font-variant:normal;font-weight:bold;font-stretch:normal;line-height:125%;letter-spacing:0px;word-spacing:0px;fill:#000000;fill-opacity:1;stroke:none;font-family:Neuton;-inkscape-font-specification:Neuton Bold"
         xml:space="preserve"><tspan
           y="1022.3622"
           x="28"
           id="tspan4730"
           sodipodi:role="line" /></text>
      <g
         id="g4093" />
      <path
         d="m 102.40227,949.35629 20.99609,61.27931 21.24024,-61.27931 10.74218,0 c 0.39055,11.62115 0.78118,22.29823 1.17188,32.03125 0.0976,2.76696 0.21151,5.55016 0.3418,8.34961 0.13013,2.76695 0.26034,5.48505 0.39062,8.1543 0.13013,2.63675 0.26034,5.15955 0.39063,7.56835 0.13013,2.3763 0.24406,4.5573 0.34179,6.543 0.13013,1.9857 0.26034,3.7272 0.39063,5.2246 0.13013,1.4649 0.26034,2.6042 0.39062,3.418 l -9.0332,0 -1.36719,-58.49614 -20.11718,58.49614 -9.52149,0 -20.214837,-58.34966 -1.51367,58.34966 -9.033204,0 c 0.09765,-0.8138 0.211581,-1.9531 0.341797,-3.418 0.1302,-1.4974 0.244132,-3.2389 0.341797,-5.2246 0.1302,-1.9857 0.260408,-4.1667 0.390625,-6.543 0.130199,-2.4088 0.260407,-4.9316 0.390625,-7.56835 0.130199,-2.66925 0.244131,-5.38735 0.341797,-8.1543 0.130198,-2.79945 0.260407,-5.58265 0.390625,-8.34961 0.390614,-9.73302 0.797515,-20.4101 1.220703,-32.03125 l 10.986322,0"
         style="font-size:100px;letter-spacing:-3px;stroke:none;stroke-width:1;stroke-miterlimit:4;stroke-dasharray:none;filter:url(#filter4930);fill:#000000"
         id="path4038"
         inkscape:connector-curvature="0"
         inkscape:export-xdpi="62.307693"
         inkscape:export-ydpi="62.307693" />
      <path
         d="m 205.16399,978.65317 c -0.81384,-0.16272 -2.00199,-0.35804 -3.56446,-0.58594 -1.52998,-0.26038 -3.51565,-0.39058 -5.95703,-0.39063 -3.19013,5e-5 -5.8594,0.65109 -8.00781,1.95313 -2.11591,1.26957 -3.80861,2.97855 -5.07812,5.12695 -1.26955,2.11592 -2.18101,4.55732 -2.73438,7.32422 -0.52085,2.76695 -0.78126,5.61526 -0.78125,8.5449 -1e-5,1.8881 0.17902,3.6296 0.53711,5.2246 0.39061,1.5626 0.91144,2.9297 1.5625,4.1016 0.65103,1.1393 1.39972,2.0345 2.24609,2.6856 0.84634,0.6185 1.7578,0.9277 2.73438,0.9277 1.0742,0 2.16469,-0.3581 3.27148,-1.0742 1.1393,-0.7162 2.24607,-1.6765 3.32032,-2.8809 1.10674,-1.237 2.18096,-2.653 3.22265,-4.248 1.04164,-1.5951 2.0182,-3.2715 2.92969,-5.0294 0.91142,-1.79029 1.75778,-3.59693 2.53906,-5.41987 0.78121,-1.82289 1.44853,-3.54815 2.00196,-5.17578 0.55334,-1.66012 0.97652,-3.17379 1.26953,-4.54102 0.32548,-1.36715 0.48824,-2.49019 0.48828,-3.36914 l 0,-3.17382 m 3.66211,41.99223 c -0.35812,-0.7812 -0.68364,-1.9531 -0.97657,-3.5157 -0.26045,-1.5625 -0.48832,-3.2389 -0.68359,-5.0293 -0.1628,-1.8229 -0.29301,-3.5969 -0.39062,-5.3222 -0.0977,-1.7253 -0.14653,-3.125 -0.14649,-4.1992 l 0,-4.88287 c -1.04171,2.76697 -2.29496,5.58267 -3.75976,8.44727 -1.43233,2.8646 -3.07621,5.4688 -4.93164,7.8125 -1.8555,2.3112 -3.90628,4.2156 -6.15235,5.713 -2.21356,1.4648 -4.58986,2.1972 -7.1289,2.1972 -2.0508,0 -3.97137,-0.4557 -5.76172,-1.3672 -1.79038,-0.9114 -3.35288,-2.2623 -4.6875,-4.0528 -1.30209,-1.7903 -2.32748,-4.0038 -3.07618,-6.6406 -0.7487,-2.6692 -1.12305,-5.7291 -1.12304,-9.1797 -1e-5,-3.87365 0.52083,-7.64969 1.5625,-11.3281 1.04166,-3.71091 2.63671,-6.99866 4.78515,-9.86328 2.14843,-2.8971 4.8828,-5.20829 8.20313,-6.9336 3.32029,-1.75776 7.25909,-2.63667 11.81641,-2.63672 3.15751,5e-5 6.29879,0.21164 9.42382,0.63477 3.12496,0.39067 5.92444,0.91151 8.39844,1.5625 l 0,22.70508 c -5e-5,6.15235 0.29292,11.32815 0.87891,15.52735 0.58588,4.1667 1.35086,7.6172 2.29492,10.3516 l -8.54492,0"
         style="font-size:100px;letter-spacing:-3px;stroke:none;stroke-width:1;stroke-miterlimit:4;stroke-dasharray:none;filter:url(#filter4934);fill:#000000"
         id="path4040"
         inkscape:connector-curvature="0"
         inkscape:export-filename="/home/mike/Projects/DMagick/docs/path4038.png"
         inkscape:export-xdpi="62.307693"
         inkscape:export-ydpi="62.307693" />
      <path
         d="m 257.24211,980.11801 c -0.78129,-0.29293 -1.61136,-0.55335 -2.49023,-0.78125 -0.87894,-0.26038 -1.77413,-0.47196 -2.68555,-0.63477 -0.91149,-0.16272 -1.80667,-0.29292 -2.68555,-0.39062 -0.84638,-0.0976 -1.64391,-0.14644 -2.39257,-0.14649 -2.6693,5e-5 -4.94794,0.55343 -6.83594,1.66016 -1.88804,1.07426 -3.43426,2.50655 -4.63867,4.29688 -1.17189,1.75784 -2.03452,3.75979 -2.58789,6.00585 -0.5534,2.24613 -0.8301,4.52477 -0.83008,6.83594 -2e-5,3.02737 0.22785,5.55019 0.68359,7.56839 0.48827,1.9857 1.13931,3.5807 1.95313,4.7851 0.84633,1.1719 1.8229,2.0183 2.92968,2.5391 1.13931,0.4883 2.37628,0.7324 3.71094,0.7324 1.23696,0 2.55531,-0.2441 3.95508,-0.7324 1.39971,-0.5208 2.79945,-1.2532 4.19922,-2.1973 1.43226,-0.944 2.79944,-2.1158 4.10156,-3.5156 1.3346,-1.3997 2.53903,-2.9948 3.61328,-4.7851 l 0,-21.24029 m 9.03321,39.30669 c -5e-5,4.2969 -0.63482,7.9753 -1.9043,11.0352 -1.23703,3.0598 -2.8809,5.5501 -4.93164,7.4707 -2.01827,1.9531 -4.32947,3.3854 -6.9336,4.2968 -2.60419,0.9115 -5.25719,1.3672 -7.95898,1.3672 -3.12502,0 -6.23374,-0.5371 -9.32617,-1.6113 -3.05991,-1.0742 -5.89194,-2.4903 -8.4961,-4.248 l 3.17383,-7.5684 c 2.31119,1.6601 4.63866,3.0111 6.98242,4.0527 2.34373,1.0417 4.73631,1.5625 7.17774,1.5625 1.2695,0 2.66924,-0.2278 4.19922,-0.6836 1.52991,-0.4557 2.9622,-1.2532 4.29687,-2.3925 1.3346,-1.1068 2.44137,-2.6042 3.32032,-4.4922 0.91141,-1.8881 1.36714,-4.2481 1.36718,-7.0801 l 0,-9.0333 c -1.26957,1.5951 -2.62048,2.9623 -4.05273,4.1016 -1.39978,1.1068 -2.83207,2.0183 -4.29688,2.7344 -1.43232,0.6836 -2.88088,1.1882 -4.3457,1.5137 -1.43232,0.293 -2.81578,0.4395 -4.15039,0.4395 -2.24611,0 -4.41083,-0.3907 -6.49414,-1.1719 -2.08335,-0.7813 -3.93882,-2.0182 -5.56641,-3.711 -1.59506,-1.7253 -2.88086,-3.9551 -3.85742,-6.6895 -0.94402,-2.7343 -1.41602,-6.0384 -1.41601,-9.91208 -1e-5,-3.74347 0.48827,-7.3893 1.46484,-10.9375 0.97655,-3.54814 2.49022,-6.68942 4.54101,-9.42383 2.05077,-2.76688 4.67121,-4.98042 7.86133,-6.64062 3.22264,-1.69266 7.06378,-2.53902 11.52344,-2.53907 1.46481,5e-5 2.96221,0.11399 4.49219,0.3418 1.56246,0.19536 3.10868,0.47205 4.63867,0.83008 1.52991,0.35812 3.0273,0.76502 4.49219,1.2207 1.4648,0.42323 2.86453,0.8464 4.19922,1.26953 l 0,45.89849"
         style="font-size:100px;letter-spacing:-3px;stroke:none;stroke-width:1;stroke-miterlimit:4;stroke-dasharray:none;filter:url(#filter4938);fill:#000000"
         id="path4042"
         inkscape:connector-curvature="0"
         inkscape:export-filename="/home/mike/Projects/DMagick/docs/path4038.png"
         inkscape:export-xdpi="62.307693"
         inkscape:export-ydpi="62.307693" />
      <path
         d="m 288.12883,997.45199 c -2e-5,1.56252 0.0163,3.41801 0.0488,5.56641 0.0651,2.1159 0.13019,4.2644 0.19531,6.4453 0.0976,2.181 0.1953,4.2644 0.29297,6.25 0.13019,1.9858 0.27667,3.6296 0.43945,4.9317 l -10.00976,0 0,-25.87895 c -10e-6,-2.37628 -0.0163,-4.72003 -0.0488,-7.03125 -1e-5,-2.31117 -0.0326,-4.49215 -0.0977,-6.54297 -0.0326,-2.08329 -0.0977,-4.00387 -0.19531,-5.76172 -0.0977,-1.79032 -0.22787,-3.32027 -0.39062,-4.58984 l 9.76562,0 0,26.61132"
         style="font-size:100px;letter-spacing:-3px"
         id="path4044"
         inkscape:connector-curvature="0"
         sodipodi:nodetypes="ccccccscccccc" />
      <path
         d="m 339.52336,1016.495 c -1.23702,0.944 -2.474,1.7578 -3.71093,2.4414 -1.20447,0.6511 -2.474,1.2045 -3.8086,1.6602 -1.33467,0.4232 -2.76696,0.7324 -4.29687,0.9277 -1.52998,0.2279 -3.20641,0.3418 -5.0293,0.3418 -3.28779,0 -6.36395,-0.5696 -9.22852,-1.709 -2.8646,-1.1718 -5.3711,-2.8483 -7.51953,-5.0293 -2.14844,-2.181 -3.84115,-4.8177 -5.07812,-7.9102 -1.23699,-3.0924 -1.85548,-6.5917 -1.85547,-10.49803 -10e-6,-3.67836 0.58593,-7.14515 1.75781,-10.40039 1.20442,-3.25517 2.89713,-6.10347 5.07813,-8.54492 2.21352,-2.44136 4.88279,-4.36193 8.00781,-5.76172 3.15753,-1.43224 6.67315,-2.14839 10.54687,-2.14844 3.25518,5e-5 6.05466,0.39068 8.39844,1.17188 2.37626,0.74874 4.45959,1.74158 6.25,2.97851 l -1.70898,8.78907 c -2.21359,-1.62757 -4.41085,-2.84827 -6.5918,-3.66211 -2.18102,-0.81376 -4.54105,-1.22066 -7.08008,-1.22071 -2.18101,5e-5 -4.21552,0.42322 -6.10351,1.26953 -1.85549,0.81385 -3.4831,2.002 -4.88282,3.56446 -1.3672,1.56253 -2.44142,3.4831 -3.22265,5.76172 -0.78127,2.27867 -1.17189,4.85028 -1.17188,7.71484 -1e-5,2.63674 0.35806,5.02931 1.07422,7.17771 0.71613,2.1485 1.74152,4.004 3.07617,5.5664 1.33462,1.53 2.94595,2.7182 4.83399,3.5645 1.88799,0.8464 4.02015,1.2695 6.39648,1.2695 2.96221,0 5.64775,-0.5045 8.05664,-1.5136 2.40882,-1.0091 4.68746,-2.4577 6.83594,-4.3457 l 0.97656,8.5449"
         style="font-size:100px;letter-spacing:-3px;stroke:none;stroke-width:1;stroke-miterlimit:4;stroke-dasharray:none;filter:url(#filter4946);fill:#000000"
         id="path4046"
         inkscape:connector-curvature="0"
         inkscape:export-filename="/home/mike/Projects/DMagick/docs/path4038.png"
         inkscape:export-xdpi="62.307693"
         inkscape:export-ydpi="62.307693" />
      <path
         d="m 348.24211,1020.6454 0,-55.17583 c 0,-5.27338 -0.0326,-9.87949 -0.0976,-13.81836 -0.0651,-3.97128 -0.2767,-7.0149 -0.63477,-9.13086 l 9.76563,0 0,48.7793 19.77539,-20.45898 12.20703,0 -24.16992,21.82617 25.63476,27.97856 -11.96289,0 -21.48437,-25.39067 0,25.39067 -9.03321,0"
         style="font-size:100px;letter-spacing:-3px;stroke:none;stroke-width:1;stroke-miterlimit:4;stroke-dasharray:none;filter:url(#filter4950);fill:#000000"
         id="path4048"
         inkscape:connector-curvature="0"
         inkscape:export-filename="/home/mike/Projects/DMagick/docs/path4038.png"
         inkscape:export-xdpi="62.307693"
         inkscape:export-ydpi="62.307693" />
      <path
         sodipodi:nodetypes="ccccccscccccc"
         inkscape:connector-curvature="0"
         id="path4054"
         style="font-size:100px;letter-spacing:-3px;stroke:none;stroke-width:1;stroke-miterlimit:4;stroke-dasharray:none;filter:url(#filter4942);fill:#000000"
         d="m 288.12883,997.45199 c -2e-5,1.56252 0.0163,3.41801 0.0488,5.56641 0.0651,2.1159 0.13019,4.2644 0.19531,6.4453 0.0976,2.181 0.1953,4.2644 0.29297,6.25 0.13019,1.9858 0.27667,3.6296 0.43945,4.9317 l -10.00976,0 0,-25.87895 c -10e-6,-2.37628 -0.0163,-4.72003 -0.0488,-7.03125 -1e-5,-2.31117 -0.0326,-4.49215 -0.0977,-6.54297 -0.0326,-2.08329 -0.0977,-4.00387 -0.19531,-5.76172 -0.0977,-1.79032 -0.22787,-3.32027 -0.39062,-4.58984 l 9.76562,0 0,26.61132"
         inkscape:export-filename="/home/mike/Projects/DMagick/docs/path4038.png"
         inkscape:export-xdpi="62.307693"
         inkscape:export-ydpi="62.307693" />
      <path
         sodipodi:type="inkscape:offset"
         inkscape:radius="-2.1967347"
         inkscape:original="M 282.25 953.5 C 282.33137 954.3353 282.40365 955.24338 282.46875 956.25 C 282.53385 957.25649 282.5762 958.35331 282.625 959.53125 C 282.67383 960.68775 282.7174 961.89264 282.75 963.15625 C 282.7826 964.41986 282.7962 965.75441 282.8125 967.125 C 282.8451 968.47427 282.88995 969.84632 282.90625 971.28125 L 292 971 L 292 953.5 L 282.25 953.5 z "
         style="font-size:100px;letter-spacing:-3px;fill:#ffffff"
         id="path4061"
         d="m 284.625,955.6875 c 0.01,0.14436 0.0217,0.25803 0.0312,0.40625 0.0678,1.04783 0.10761,2.16964 0.15625,3.34375 0.0492,1.16572 0.092,2.37818 0.125,3.65625 0.033,1.27767 0.0464,2.61166 0.0625,3.96875 1.3e-4,0.0107 -1.3e-4,0.0206 0,0.0312 0.015,0.61865 0.0149,1.29537 0.0312,1.9375 l 4.78125,-0.15625 0,-13.1875 -5.1875,0 z"
         transform="translate(-3.9031733,17.347437)" />
      <path
         sodipodi:type="star"
         style="fill:#ffff00;fill-opacity:1;stroke:#ff6600;stroke-width:2;stroke-miterlimit:4;stroke-opacity:1;stroke-dasharray:none"
         id="path4063"
         sodipodi:sides="5"
         sodipodi:cx="277.80838"
         sodipodi:cy="30.513912"
         sodipodi:r1="10.530432"
         sodipodi:r2="5.2652159"
         sodipodi:arg1="0.75931712"
         sodipodi:arg2="1.3876357"
         inkscape:flatsided="false"
         inkscape:rounded="0"
         inkscape:randomized="0"
         d="m 285.44617,37.763338 -6.67879,-2.072282 -5.49341,4.327021 -0.093,-6.992279 -5.8128,-3.887415 6.62132,-2.249184 1.9009,-6.729575 4.18519,5.602206 6.98762,-0.27169 -4.03472,5.711537 z"
         transform="translate(2.181167,921.13362)"
         inkscape:transform-center-x="0.59269301"
         inkscape:transform-center-y="-0.42506207" />
      <path
         sodipodi:type="star"
         style="fill:#ffff00;fill-opacity:1;stroke:#ff6600;stroke-width:1.5;stroke-miterlimit:4;stroke-opacity:1;stroke-dasharray:none"
         id="path4068"
         sodipodi:sides="5"
         sodipodi:cx="260.84991"
         sodipodi:cy="12.260892"
         sodipodi:r1="7.3970275"
         sodipodi:r2="3.6985137"
         sodipodi:arg1="0.57344053"
         sodipodi:arg2="1.2017591"
         inkscape:flatsided="false"
         inkscape:rounded="0"
         inkscape:randomized="0"
         d="m 267.06371,16.273967 -4.87968,-0.563564 -3.23061,3.700267 -0.97192,-4.814998 -4.51748,-1.92905 4.279,-2.412268 0.43866,-4.8924851 3.61648,3.324134 4.78858,-1.0946721 -2.04388,4.4666962 z"
         transform="translate(-3.2559031,923.20488)"
         inkscape:transform-center-x="0.58604874"
         inkscape:transform-center-y="0.12537758" />
    </g>
  </g>
</svg>
